<svg width="17" height="10" viewBox="0 0 17 10" fill="none" xmlns="http://www.w3.org/2000/svg">
<path fill-rule="evenodd" clip-rule="evenodd" d="M6.66667 5C6.66667 4.07917 7.4125 3.33333 8.33333 3.33333C9.25417 3.33333 10 4.07917 10 5C10 5.92083 9.25417 6.66667 8.33333 6.66667C7.4125 6.66667 6.66667 5.92083 6.66667 5ZM14.1667 8.33333H2.5C2.04 8.33333 1.66667 7.96 1.66667 7.5V2.5C1.66667 2.04 2.04 1.66667 2.5 1.66667H14.1667C14.6267 1.66667 15 2.04 15 2.5V7.5C15 7.96 14.6267 8.33333 14.1667 8.33333ZM0 1.66667V8.33333C0 9.25417 0.745833 10 1.66667 10H15C15.9208 10 16.6667 9.25417 16.6667 8.33333V1.66667C16.6667 0.745833 15.9208 0 15 0H1.66667C0.745833 0 0 0.745833 0 1.66667Z" fill="#1B8CFF"/>
</svg>
