<svg width="14" height="11" viewBox="0 0 14 11" fill="none" xmlns="http://www.w3.org/2000/svg">
<path fill-rule="evenodd" clip-rule="evenodd" d="M0 2.66667C0 1.19391 1.19391 0 2.66667 0H10.6667C12.1394 0 13.3333 1.19391 13.3333 2.66667V3.33333V7.33333V8C13.3333 9.47273 12.1394 10.6667 10.6667 10.6667H2.66667C1.19391 10.6667 0 9.47273 0 8V2.66667ZM10.6667 1.33333C11.4031 1.33333 12 1.93029 12 2.66667H10.6667C9.19393 2.66667 8 3.86057 8 5.33333C8 6.80607 9.19393 8 10.6667 8H12C12 8.7364 11.4031 9.33333 10.6667 9.33333H2.66667C1.93029 9.33333 1.33333 8.7364 1.33333 8V2.66667C1.33333 1.93029 1.93029 1.33333 2.66667 1.33333H10.6667ZM10.6667 4H12V6.66667H10.6667C9.93027 6.66667 9.33333 6.06973 9.33333 5.33333C9.33333 4.59693 9.93027 4 10.6667 4ZM10.6667 6C11.0349 6 11.3333 5.70153 11.3333 5.33333C11.3333 4.96513 11.0349 4.66667 10.6667 4.66667C10.2985 4.66667 10 4.96513 10 5.33333C10 5.70153 10.2985 6 10.6667 6Z" fill="#1B8CFF"/>
</svg>
